<?xml version="1.0" encoding="UTF-8"?>
<svg width="28px" height="28px" viewBox="0 0 28 28" version="1.1" xmlns="http://www.w3.org/2000/svg" xmlns:xlink="http://www.w3.org/1999/xlink">
    <!-- Generator: Sketch 64 (93537) - https://sketch.com -->
    <title>Group 2</title>
    <desc>Created with Sketch.</desc>
    <g id="Page-1" stroke="none" stroke-width="1" fill="none" fill-rule="evenodd">
        <g id="Artboard" transform="translate(-576.000000, -458.000000)">
            <g id="Group-46" transform="translate(576.000000, 420.000000)">
                <g id="Group-45">
                    <g id="Group-2" transform="translate(0.000000, 38.000000)">
                        <g id="Group-36" fill="#FFFFFF">
                            <path d="M14.0056,27.3806 L14.0056,27.3806 C6.5656,27.3806 0.5336,21.3486 0.5336,13.9076 C0.5336,6.4676 6.5656,0.4366 14.0056,0.4366 C21.4456,0.4366 27.4776,6.4676 27.4776,13.9076 C27.4776,21.3486 21.4456,27.3806 14.0056,27.3806" id="Fill-34"></path>
                        </g>
                        <path d="M21.0178,8.9958 L21.0178,8.9958 C19.3368,7.3148 16.5858,7.3148 14.9048,8.9958 C14.5118,9.3888 14.2148,9.8418 14.0058,10.3238 C13.7968,9.8418 13.4988,9.3888 13.1068,8.9958 C11.4258,7.3148 8.6748,7.3148 6.9938,8.9958 C5.3128,10.6778 5.3128,13.4288 6.9938,15.1088 L10.5008,18.6168 L13.2968,21.4118 C13.6868,21.8028 14.3248,21.8028 14.7148,21.4118 L17.5098,18.6168 L21.0178,15.1088 C22.6988,13.4288 22.6988,10.6778 21.0178,8.9958 Z" id="Stroke-37" stroke="#469BBC" stroke-width="0.526"></path>
                    </g>
                </g>
            </g>
        </g>
    </g>
</svg>